<svg id="Layer_1" data-name="Layer 1" xmlns="http://www.w3.org/2000/svg" viewBox="0 0 200 100"><defs><style>.cls-1,.cls-3,.cls-5,.cls-6{fill:#fff;}.cls-2{fill:#e6e6e6;}.cls-3,.cls-4,.cls-5,.cls-6,.cls-7{stroke:#e6e6e6;}.cls-10,.cls-11,.cls-12,.cls-3,.cls-4,.cls-6,.cls-7,.cls-8{stroke-linecap:round;}.cls-10,.cls-11,.cls-12,.cls-3,.cls-4,.cls-5,.cls-8{stroke-miterlimit:10;}.cls-10,.cls-11,.cls-12,.cls-3,.cls-4,.cls-5,.cls-6,.cls-7{stroke-width:1.5px;}.cls-10,.cls-11,.cls-12,.cls-4,.cls-7,.cls-8{fill:none;}.cls-6,.cls-7{stroke-linejoin:round;}.cls-8{stroke:#333;stroke-width:2px;}.cls-9{fill:#532d4c;}.cls-10,.cls-11,.cls-12{stroke:#b3b3b3;}.cls-11{stroke-dasharray:4.12 2.06 7.22 3.09;}.cls-12{stroke-dasharray:2.06 3.09 4.12 2.06 7.22 3.09;}.cls-13{fill:#173f6d;}.cls-14{fill:#71c8ee;}.cls-15{fill:#91467f;}.cls-16{fill:#6e3c65;}.cls-17{fill:#af5b9f;}</style></defs><title>ZeroStateIllustrations-Clean</title><polygon class="cls-1" points="87.69 96.38 85.56 72.41 106.37 72.41 104.23 96.38 87.69 96.38"/><path class="cls-2" d="M105.55,73.16l-2,22.47H88.38l-2-22.47h19.17m1.64-1.5H84.74l.15,1.63,2,22.47L87,97.13h17.91l.12-1.37,2-22.47.15-1.63Z"/><path class="cls-1" d="M136.17,96.58V94a1.76,1.76,0,0,1,1.75-1.75h24A1.75,1.75,0,0,1,163.65,94v2.55Z"/><path class="cls-2" d="M161.9,93a1,1,0,0,1,1,1v1.8h-26V94a1,1,0,0,1,1-1h24m0-1.5h-24a2.5,2.5,0,0,0-2.5,2.5v3.3h29V94a2.5,2.5,0,0,0-2.5-2.5Z"/><path class="cls-1" d="M157.67,92.1V90.94a1.75,1.75,0,0,1,1.75-1.75h.2a1.75,1.75,0,0,1,1.75,1.75V92.1Z"/><path class="cls-2" d="M159.62,89.94a1,1,0,0,1,1,1v.41h-2.2v-.41a1,1,0,0,1,1-1h.2m0-1.5h-.2a2.5,2.5,0,0,0-2.5,2.5v1.91h5.2V90.94a2.5,2.5,0,0,0-2.5-2.5Z"/><path class="cls-1" d="M151.45,92.1V90.94a1.75,1.75,0,0,1,1.75-1.75h.2a1.75,1.75,0,0,1,1.75,1.75V92.1Z"/><path class="cls-2" d="M153.4,89.94a1,1,0,0,1,1,1v.41h-2.2v-.41a1,1,0,0,1,1-1h.2m0-1.5h-.2a2.5,2.5,0,0,0-2.5,2.5v1.91h5.2V90.94a2.5,2.5,0,0,0-2.5-2.5Z"/><path class="cls-3" d="M159.29,88.8c0-9.08,4.61-7.91,3-14.07S157.3,69.56,157.3,62"/><path class="cls-3" d="M153.56,88.8c0-4.51,4-3.5,3.79-9.45S151.8,66.15,154,62"/><line class="cls-4" x1="93.53" y1="44.3" x2="94.36" y2="35.43"/><line class="cls-4" x1="91.43" y1="41.8" x2="91.73" y2="34.63"/><line class="cls-4" x1="89.16" y1="41" x2="88.7" y2="33.12"/><line class="cls-4" x1="87.64" y1="43.63" x2="86.1" y2="36.53"/><rect class="cls-2" x="80.76" y="58.23" width="96.38" height="4.94" rx="1"/><rect class="cls-1" x="136.99" y="25.49" width="8.47" height="27.23" rx="1.75"/><path class="cls-2" d="M143.72,26.24a1,1,0,0,1,1,1V51a1,1,0,0,1-1,1h-5a1,1,0,0,1-1-1V27.24a1,1,0,0,1,1-1h5m0-1.5h-5a2.5,2.5,0,0,0-2.5,2.5V51a2.5,2.5,0,0,0,2.5,2.5h5a2.5,2.5,0,0,0,2.5-2.5V27.24a2.5,2.5,0,0,0-2.5-2.5Z"/><rect class="cls-2" x="115.52" y="10.9" width="51.41" height="28.18" rx="1.75"/><path class="cls-2" d="M165.19,11.65a1,1,0,0,1,1,1V37.33a1,1,0,0,1-1,1H117.27a1,1,0,0,1-1-1V12.65a1,1,0,0,1,1-1h47.92m0-1.5H117.27a2.51,2.51,0,0,0-2.5,2.5V37.33a2.51,2.51,0,0,0,2.5,2.5h47.92a2.51,2.51,0,0,0,2.5-2.5V12.65a2.51,2.51,0,0,0-2.5-2.5Z"/><rect class="cls-1" x="115.52" y="7.53" width="51.41" height="29.17" rx="1.75"/><path class="cls-2" d="M165.19,8.28a1,1,0,0,1,1,1V35a1,1,0,0,1-1,1H117.27a1,1,0,0,1-1-1V9.28a1,1,0,0,1,1-1h47.92m0-1.5H117.27a2.51,2.51,0,0,0-2.5,2.5V35a2.51,2.51,0,0,0,2.5,2.5h47.92a2.51,2.51,0,0,0,2.5-2.5V9.28a2.51,2.51,0,0,0-2.5-2.5Z"/><circle class="cls-2" cx="141.23" cy="43.28" r="1.78"/><rect class="cls-1" x="174.19" y="57.32" width="3.78" height="39.34" rx="1.75"/><path class="cls-2" d="M176.23,58.07a1,1,0,0,1,1,1V94.91a1,1,0,0,1-1,1h-.29a1,1,0,0,1-1-1V59.07a1,1,0,0,1,1-1h.29m0-1.5h-.29a2.51,2.51,0,0,0-2.5,2.5V94.91a2.51,2.51,0,0,0,2.5,2.5h.29a2.51,2.51,0,0,0,2.5-2.5V59.07a2.51,2.51,0,0,0-2.5-2.5Z"/><rect class="cls-1" x="77.54" y="57.32" width="3.78" height="39.34" rx="1.75"/><path class="cls-2" d="M79.57,58.07a1,1,0,0,1,1,1V94.91a1,1,0,0,1-1,1h-.28a1,1,0,0,1-1-1V59.07a1,1,0,0,1,1-1h.28m0-1.5h-.28a2.5,2.5,0,0,0-2.5,2.5V94.91a2.51,2.51,0,0,0,2.5,2.5h.28a2.51,2.51,0,0,0,2.5-2.5V59.07a2.5,2.5,0,0,0-2.5-2.5Z"/><rect class="cls-1" x="75.67" y="52.29" width="106.13" height="6.04" rx="1.75"/><path class="cls-2" d="M180.05,53a1,1,0,0,1,1,1v2.54a1,1,0,0,1-1,1H77.42a1,1,0,0,1-1-1V54a1,1,0,0,1,1-1H180.05m0-1.5H77.42a2.51,2.51,0,0,0-2.5,2.5v2.54a2.5,2.5,0,0,0,2.5,2.5H180.05a2.5,2.5,0,0,0,2.5-2.5V54a2.51,2.51,0,0,0-2.5-2.5Z"/><path class="cls-1" d="M103.48,51.77A1.76,1.76,0,0,1,101.73,50a2.62,2.62,0,0,1,2.63-2.62h2.25A2.62,2.62,0,0,1,109.24,50a1.76,1.76,0,0,1-1.75,1.75Z"/><path class="cls-2" d="M106.61,48.15A1.88,1.88,0,0,1,108.49,50a1,1,0,0,1-1,1h-4a1,1,0,0,1-1-1,1.88,1.88,0,0,1,1.88-1.87h2.25m0-1.5h-2.25A3.38,3.38,0,0,0,101,50a2.51,2.51,0,0,0,2.5,2.5h4A2.5,2.5,0,0,0,110,50a3.38,3.38,0,0,0-3.38-3.37Z"/><rect class="cls-1" x="161.4" y="47.01" width="3.81" height="2.64" rx="1.26"/><path class="cls-2" d="M163.94,47.76a.51.51,0,0,1,.52.51v.12a.51.51,0,0,1-.52.51h-1.28a.51.51,0,0,1-.51-.51v-.12a.51.51,0,0,1,.51-.51h1.28m0-1.5h-1.28a2,2,0,0,0-2,2v.12a2,2,0,0,0,2,2h1.28a2,2,0,0,0,2-2v-.12a2,2,0,0,0-2-2Z"/><rect class="cls-1" x="156.98" y="47.01" width="3.81" height="2.64" rx="1.26"/><path class="cls-2" d="M159.53,47.76a.51.51,0,0,1,.51.51v.12a.51.51,0,0,1-.51.51h-1.28a.51.51,0,0,1-.52-.51v-.12a.51.51,0,0,1,.52-.51h1.28m0-1.5h-1.28a2,2,0,0,0-2,2v.12a2,2,0,0,0,2,2h1.28a2,2,0,0,0,2-2v-.12a2,2,0,0,0-2-2Z"/><rect class="cls-1" x="152.57" y="47.01" width="3.81" height="2.64" rx="1.26"/><path class="cls-2" d="M155.12,47.76a.51.51,0,0,1,.51.51v.12a.51.51,0,0,1-.51.51h-1.29a.51.51,0,0,1-.51-.51v-.12a.51.51,0,0,1,.51-.51h1.29m0-1.5h-1.29a2,2,0,0,0-2,2v.12a2,2,0,0,0,2,2h1.29a2,2,0,0,0,2-2v-.12a2,2,0,0,0-2-2Z"/><rect class="cls-1" x="148.15" y="47.01" width="3.81" height="2.64" rx="1.26"/><path class="cls-2" d="M150.7,47.76a.51.51,0,0,1,.51.51v.12a.51.51,0,0,1-.51.51h-1.28a.51.51,0,0,1-.52-.51v-.12a.51.51,0,0,1,.52-.51h1.28m0-1.5h-1.28a2,2,0,0,0-2,2v.12a2,2,0,0,0,2,2h1.28a2,2,0,0,0,2-2v-.12a2,2,0,0,0-2-2Z"/><rect class="cls-1" x="143.74" y="47.01" width="3.81" height="2.64" rx="1.26"/><path class="cls-2" d="M146.29,47.76a.51.51,0,0,1,.51.51v.12a.51.51,0,0,1-.51.51H145a.51.51,0,0,1-.51-.51v-.12a.51.51,0,0,1,.51-.51h1.29m0-1.5H145a2,2,0,0,0-2,2v.12a2,2,0,0,0,2,2h1.29a2,2,0,0,0,2-2v-.12a2,2,0,0,0-2-2Z"/><rect class="cls-1" x="139.32" y="47.01" width="3.81" height="2.64" rx="1.26"/><path class="cls-2" d="M141.87,47.76a.51.51,0,0,1,.51.51v.12a.51.51,0,0,1-.51.51h-1.28a.52.52,0,0,1-.52-.51v-.12a.52.52,0,0,1,.52-.51h1.28m0-1.5h-1.28a2,2,0,0,0-2,2v.12a2,2,0,0,0,2,2h1.28a2,2,0,0,0,2-2v-.12a2,2,0,0,0-2-2Z"/><rect class="cls-1" x="134.91" y="47.01" width="3.81" height="2.64" rx="1.26"/><path class="cls-2" d="M137.46,47.76a.51.51,0,0,1,.51.51v.12a.51.51,0,0,1-.51.51h-1.29a.51.51,0,0,1-.51-.51v-.12a.51.51,0,0,1,.51-.51h1.29m0-1.5h-1.29a2,2,0,0,0-2,2v.12a2,2,0,0,0,2,2h1.29a2,2,0,0,0,2-2v-.12a2,2,0,0,0-2-2Z"/><rect class="cls-1" x="130.5" y="47.01" width="3.81" height="2.64" rx="1.26"/><path class="cls-2" d="M133,47.76a.52.52,0,0,1,.52.51v.12a.52.52,0,0,1-.52.51h-1.28a.51.51,0,0,1-.51-.51v-.12a.51.51,0,0,1,.51-.51H133m0-1.5h-1.28a2,2,0,0,0-2,2v.12a2,2,0,0,0,2,2H133a2,2,0,0,0,2-2v-.12a2,2,0,0,0-2-2Z"/><rect class="cls-1" x="126.08" y="47.01" width="3.81" height="2.64" rx="1.26"/><path class="cls-2" d="M128.63,47.76a.51.51,0,0,1,.51.51v.12a.51.51,0,0,1-.51.51h-1.29a.51.51,0,0,1-.51-.51v-.12a.51.51,0,0,1,.51-.51h1.29m0-1.5h-1.29a2,2,0,0,0-2,2v.12a2,2,0,0,0,2,2h1.29a2,2,0,0,0,2-2v-.12a2,2,0,0,0-2-2Z"/><rect class="cls-1" x="121.67" y="47.01" width="3.81" height="2.64" rx="1.26"/><path class="cls-2" d="M124.21,47.76a.51.51,0,0,1,.52.51v.12a.51.51,0,0,1-.52.51h-1.28a.51.51,0,0,1-.51-.51v-.12a.51.51,0,0,1,.51-.51h1.28m0-1.5h-1.28a2,2,0,0,0-2,2v.12a2,2,0,0,0,2,2h1.28a2,2,0,0,0,2-2v-.12a2,2,0,0,0-2-2Z"/><rect class="cls-1" x="117.25" y="47.01" width="3.81" height="2.64" rx="1.26"/><path class="cls-2" d="M119.8,47.76a.51.51,0,0,1,.51.51v.12a.51.51,0,0,1-.51.51h-1.29a.51.51,0,0,1-.51-.51v-.12a.51.51,0,0,1,.51-.51h1.29m0-1.5h-1.29a2,2,0,0,0-2,2v.12a2,2,0,0,0,2,2h1.29a2,2,0,0,0,2-2v-.12a2,2,0,0,0-2-2Z"/><rect class="cls-1" x="113.83" y="48.26" width="54.81" height="3.51" rx="1.65"/><path class="cls-2" d="M167,49a.9.9,0,0,1,.9.9v.21a.9.9,0,0,1-.9.9h-51.5a.9.9,0,0,1-.9-.9v-.21a.9.9,0,0,1,.9-.9H167m0-1.5h-51.5a2.4,2.4,0,0,0-2.4,2.4v.21a2.4,2.4,0,0,0,2.4,2.4H167a2.4,2.4,0,0,0,2.4-2.4v-.21a2.4,2.4,0,0,0-2.4-2.4Z"/><rect class="cls-1" x="86.22" y="41.42" width="8.27" height="10.06" rx="1.75"/><path class="cls-2" d="M92.74,42.17a1,1,0,0,1,1,1v6.56a1,1,0,0,1-1,1H88a1,1,0,0,1-1-1V43.17a1,1,0,0,1,1-1h4.77m0-1.5H88a2.5,2.5,0,0,0-2.5,2.5v6.56a2.5,2.5,0,0,0,2.5,2.5h4.77a2.5,2.5,0,0,0,2.5-2.5V43.17a2.5,2.5,0,0,0-2.5-2.5Z"/><path class="cls-5" d="M34.27,41.14c-2.61-10.46,5.88-14.88,5.88-14.88"/><path class="cls-5" d="M32.12,43.7C35.37,30,24,25.27,24,25.27"/><path class="cls-5" d="M32.4,40.68c-1.42-8-8.57-7.94-8.57-7.94"/><path class="cls-5" d="M39.7,34c-5.57,1.85-4.91,6.33-4.91,6.33"/><path class="cls-2" d="M64.66,96.66a1.51,1.51,0,0,1-1.4-1l-1.37-3.51v-.14a1.5,1.5,0,0,1,1.5-1.5H67a1.5,1.5,0,0,1,1.5,1.5v3.1A1.51,1.51,0,0,1,67,96.66Z"/><path class="cls-2" d="M67,91.3a.75.75,0,0,1,.75.75v3.1a.76.76,0,0,1-.75.76H64.66a.75.75,0,0,1-.7-.48l-1.32-3.38a.75.75,0,0,1,.75-.75H67m0-1.5H63.39a2.25,2.25,0,0,0-2.25,2.25v.28l.1.27L62.56,96a2.24,2.24,0,0,0,2.1,1.44H67a2.26,2.26,0,0,0,2.25-2.26v-3.1A2.25,2.25,0,0,0,67,89.8Z"/><path class="cls-2" d="M25.26,96.66a1.51,1.51,0,0,1-1.5-1.51v-3.1a1.5,1.5,0,0,1,1.5-1.5h3.36a1.5,1.5,0,0,1,1.43,2l-1,3.1a1.5,1.5,0,0,1-1.43,1Z"/><path class="cls-2" d="M28.62,91.3a.75.75,0,0,1,.72,1l-1,3.11a.75.75,0,0,1-.72.52H25.26a.76.76,0,0,1-.75-.76v-3.1a.75.75,0,0,1,.75-.75h3.36m0-1.5H25.26A2.25,2.25,0,0,0,23,92.05v3.1a2.26,2.26,0,0,0,2.25,2.26h2.35a2.25,2.25,0,0,0,2.14-1.56l1-3.1a2.27,2.27,0,0,0-.32-2,2.25,2.25,0,0,0-1.83-.93Z"/><rect class="cls-1" x="23.76" y="54.84" width="44.78" height="39.83" rx="1.75"/><path class="cls-2" d="M66.79,55.59a1,1,0,0,1,1,1V92.92a1,1,0,0,1-1,1H25.51a1,1,0,0,1-1-1V56.59a1,1,0,0,1,1-1H66.79m0-1.5H25.51a2.51,2.51,0,0,0-2.5,2.5V92.92a2.5,2.5,0,0,0,2.5,2.5H66.79a2.5,2.5,0,0,0,2.5-2.5V56.59a2.51,2.51,0,0,0-2.5-2.5Z"/><rect class="cls-2" x="22.61" y="53.69" width="47.02" height="4.12" rx="1.47"/><path class="cls-2" d="M68.16,54.44a.73.73,0,0,1,.72.73v1.17a.73.73,0,0,1-.72.73H24.08a.73.73,0,0,1-.72-.73V55.17a.73.73,0,0,1,.72-.73H68.16m0-1.5H24.08a2.23,2.23,0,0,0-2.22,2.23v1.17a2.23,2.23,0,0,0,2.22,2.23H68.16a2.22,2.22,0,0,0,2.22-2.23V55.17a2.22,2.22,0,0,0-2.22-2.23Z"/><rect class="cls-1" x="26.4" y="62.44" width="39.5" height="13.75" rx="1.75"/><path class="cls-2" d="M64.15,63.19a1,1,0,0,1,1,1V74.43a1,1,0,0,1-1,1h-36a1,1,0,0,1-1-1V64.19a1,1,0,0,1,1-1h36m0-1.5h-36a2.5,2.5,0,0,0-2.5,2.5V74.43a2.5,2.5,0,0,0,2.5,2.5h36a2.5,2.5,0,0,0,2.5-2.5V64.19a2.5,2.5,0,0,0-2.5-2.5Z"/><rect class="cls-2" x="32.34" y="64.89" width="27.63" height="3.65" rx="1.34"/><path class="cls-1" d="M58.62,65.64a.59.59,0,0,1,.59.6v1a.58.58,0,0,1-.59.59H33.68a.58.58,0,0,1-.59-.59v-1a.59.59,0,0,1,.59-.6H58.62m0-1.5H33.68a2.1,2.1,0,0,0-2.09,2.1v1a2.09,2.09,0,0,0,2.09,2.09H58.62a2.08,2.08,0,0,0,2.09-2.09v-1a2.09,2.09,0,0,0-2.09-2.1Z"/><rect class="cls-1" x="26.4" y="78.79" width="39.5" height="13.25" rx="1.75"/><path class="cls-2" d="M64.15,79.54a1,1,0,0,1,1,1v9.75a1,1,0,0,1-1,1h-36a1,1,0,0,1-1-1V80.54a1,1,0,0,1,1-1h36m0-1.5h-36a2.5,2.5,0,0,0-2.5,2.5v9.75a2.5,2.5,0,0,0,2.5,2.5h36a2.5,2.5,0,0,0,2.5-2.5V80.54a2.5,2.5,0,0,0-2.5-2.5Z"/><rect class="cls-2" x="32.34" y="81.24" width="27.63" height="3.65" rx="1.34"/><path class="cls-1" d="M58.62,82a.59.59,0,0,1,.59.6v1a.58.58,0,0,1-.59.59H33.68a.58.58,0,0,1-.59-.59v-1a.59.59,0,0,1,.59-.6H58.62m0-1.5H33.68a2.1,2.1,0,0,0-2.09,2.1v1a2.09,2.09,0,0,0,2.09,2.09H58.62a2.08,2.08,0,0,0,2.09-2.09v-1a2.09,2.09,0,0,0-2.09-2.1Z"/><line class="cls-3" x1="62.35" y1="75.76" x2="62.35" y2="69.23"/><line class="cls-3" x1="59.71" y1="75.76" x2="59.71" y2="72.48"/><line class="cls-3" x1="62.35" y1="91.45" x2="62.35" y2="84.92"/><line class="cls-3" x1="59.47" y1="91.45" x2="59.47" y2="88.17"/><line class="cls-3" x1="28.76" y1="91.45" x2="28.76" y2="87.35"/><line class="cls-3" x1="31.92" y1="91.45" x2="31.92" y2="89.39"/><path class="cls-1" d="M30.58,53.46a2.34,2.34,0,0,1-2.3-2l-1.14-8.17a2.28,2.28,0,0,1,.55-1.85,2.31,2.31,0,0,1,1.75-.8h6.89a2.32,2.32,0,0,1,1.76.8,2.35,2.35,0,0,1,.55,1.85L37.5,51.45a2.35,2.35,0,0,1-2.31,2Z"/><path class="cls-2" d="M36.33,41.38a1.59,1.59,0,0,1,1.57,1.8l-1.14,8.17a1.58,1.58,0,0,1-1.57,1.36H30.58A1.57,1.57,0,0,1,29,51.35l-1.14-8.17a1.58,1.58,0,0,1,1.56-1.8h6.89m0-1.5H29.44a3.06,3.06,0,0,0-2.32,1.06,3.1,3.1,0,0,0-.73,2.44l1.14,8.17a3.1,3.1,0,0,0,3,2.66h4.61a3.09,3.09,0,0,0,3.05-2.66l1.14-8.17a3.07,3.07,0,0,0-3.05-3.5Z"/><rect class="cls-2" x="26.12" y="39.52" width="13.54" height="4.66" rx="1.75"/><path class="cls-2" d="M37.91,40.27a1,1,0,0,1,1,1v1.16a1,1,0,0,1-1,1h-10a1,1,0,0,1-1-1V41.27a1,1,0,0,1,1-1h10m0-1.5h-10a2.51,2.51,0,0,0-2.5,2.5v1.16a2.5,2.5,0,0,0,2.5,2.5h10a2.5,2.5,0,0,0,2.5-2.5V41.27a2.51,2.51,0,0,0-2.5-2.5Z"/><path class="cls-2" d="M86.1,73.4a1.19,1.19,0,1,1,0-2.38h19.73a1.19,1.19,0,1,1,0,2.38Z"/><path class="cls-2" d="M105.83,71.77a.43.43,0,0,1,.44.44.44.44,0,0,1-.44.44H86.1a.44.44,0,0,1-.44-.44.43.43,0,0,1,.44-.44h19.73m0-1.5H86.1a1.94,1.94,0,1,0,0,3.88h19.73a1.94,1.94,0,0,0,0-3.88Z"/><line class="cls-4" x1="101.06" y1="90.65" x2="102.67" y2="72.52"/><line class="cls-4" x1="96.59" y1="96.43" x2="97.9" y2="81.7"/><line class="cls-4" x1="93.22" y1="86.09" x2="94.33" y2="73.62"/><line class="cls-4" x1="88.62" y1="95.99" x2="90.23" y2="77.86"/><line class="cls-4" x1="105.45" y1="78.9" x2="97.38" y2="78.9"/><line class="cls-4" x1="95.79" y1="82.85" x2="86.68" y2="82.85"/><line class="cls-4" x1="104.63" y1="88.89" x2="91.84" y2="88.89"/><line class="cls-4" x1="104.35" y1="93.33" x2="91.57" y2="93.33"/><path class="cls-6" d="M115.29,96.53s1.76-5.68-1.63-7.12-7.81,1.7-6.17,5.4,4.87.18,5.9.6A8.4,8.4,0,0,1,115.29,96.53Z"/><path class="cls-7" d="M112.49,91.8a4.07,4.07,0,0,1-2.44,4.31"/><path class="cls-7" d="M109.51,92.73a3.93,3.93,0,0,1,3.08-3.49"/><line class="cls-8" x1="19.13" y1="98.16" x2="168.33" y2="98.16"/><line class="cls-8" x1="174.12" y1="98.16" x2="182.47" y2="98.16"/><line class="cls-8" x1="187.84" y1="98.16" x2="191.84" y2="98.16"/><line class="cls-8" x1="3.7" y1="98.16" x2="13.6" y2="98.16"/><path class="cls-9" d="M59.53,86.89a4.28,4.28,0,0,1-4.28-4.28V37.38a4.28,4.28,0,0,1,4.28-4.28H73.09a5.42,5.42,0,0,1,4.5,2.4l.78,1.16a3.89,3.89,0,0,0,3.25,1.73H132a4.28,4.28,0,0,1,4.28,4.28V82.61A4.28,4.28,0,0,1,132,86.89Z"/><path class="cls-9" d="M73.09,33.85A4.67,4.67,0,0,1,77,35.91l.78,1.17a4.64,4.64,0,0,0,3.87,2.06H132a3.54,3.54,0,0,1,3.53,3.53V82.61A3.54,3.54,0,0,1,132,86.14H59.53A3.54,3.54,0,0,1,56,82.61V37.38a3.54,3.54,0,0,1,3.53-3.53H73.09m0-1.5H59.53a5,5,0,0,0-5,5V82.61a5,5,0,0,0,5,5H132a5,5,0,0,0,5-5V42.67a5,5,0,0,0-5-5H81.62A3.15,3.15,0,0,1,79,36.24l-.78-1.16a6.14,6.14,0,0,0-5.12-2.73Z"/><path class="cls-10" d="M130.59,18.29l-1,.22"/><path class="cls-11" d="M126.65,19.38c-7.4,2.64-8.75,7.28-7.58,11"/><path class="cls-12" d="M119.65,31.82c1.58,3.06,4.8,5.09,7.12,4,5.65-2.73-3.66-13-10.45-7.46a13.74,13.74,0,0,0-5,12.21"/><path class="cls-10" d="M111.5,42.06a9.77,9.77,0,0,0,.23,1"/><ellipse class="cls-13" cx="137.9" cy="13.33" rx="1.66" ry="1.28" transform="translate(105.51 148.04) rotate(-82)"/><path class="cls-14" d="M141,15.34a2.75,2.75,0,0,1-1.89-.64,2.12,2.12,0,0,1-.68-1.69,5.1,5.1,0,0,1,2.16-3.5,6.75,6.75,0,0,1,4-1.53,2.75,2.75,0,0,1,1.89.64,2.12,2.12,0,0,1,.68,1.69,5.1,5.1,0,0,1-2.16,3.5,6.75,6.75,0,0,1-3.94,1.53Z"/><path class="cls-13" d="M144.58,8.73a2,2,0,0,1,1.38.45c.95.86.31,2.67-1.44,4A5.93,5.93,0,0,1,141,14.59a2,2,0,0,1-1.38-.45c-.95-.86-.3-2.67,1.44-4a6,6,0,0,1,3.48-1.37m0-1.5a7.52,7.52,0,0,0-4.41,1.69A5.85,5.85,0,0,0,137.72,13a2.86,2.86,0,0,0,.93,2.27,3.46,3.46,0,0,0,2.39.84,7.5,7.5,0,0,0,4.41-1.69,5.85,5.85,0,0,0,2.45-4.06A2.86,2.86,0,0,0,147,8.07a3.46,3.46,0,0,0-2.39-.84Z"/><path class="cls-14" d="M137.72,18a2.12,2.12,0,0,1-1.43-.53,1.74,1.74,0,0,1-.57-1.34,2,2,0,0,1,.8-1.47,2.42,2.42,0,0,1,1.52-.53,2.12,2.12,0,0,1,1.43.53A1.71,1.71,0,0,1,140,16a2,2,0,0,1-.79,1.47,2.47,2.47,0,0,1-1.53.53Z"/><path class="cls-13" d="M138,14.83a1.35,1.35,0,0,1,.92.33,1.06,1.06,0,0,1-.18,1.67,1.69,1.69,0,0,1-1.06.37,1.37,1.37,0,0,1-.92-.33A1.06,1.06,0,0,1,137,15.2a1.69,1.69,0,0,1,1.06-.37m0-1.5a3.25,3.25,0,0,0-2,.69,2.73,2.73,0,0,0-1.08,2,2.53,2.53,0,0,0,.82,1.92,2.88,2.88,0,0,0,1.93.72,3.25,3.25,0,0,0,2-.69,2.73,2.73,0,0,0,1.08-2,2.49,2.49,0,0,0-.82-1.92,2.88,2.88,0,0,0-1.93-.72Z"/><path class="cls-14" d="M137.58,12.44a1.64,1.64,0,0,1-.61-.11c-1.37-.52-1.89-2.72-1.22-5.11.59-2.09,1.85-3.49,3.14-3.49a1.62,1.62,0,0,1,.61.12c1.37.52,1.89,2.71,1.22,5.11-.59,2.08-1.85,3.48-3.13,3.48Z"/><path class="cls-13" d="M138.89,4.48a.83.83,0,0,1,.34.07c1,.37,1.32,2.25.77,4.21-.49,1.73-1.51,2.93-2.41,2.93a1,1,0,0,1-.35-.06c-1-.37-1.32-2.25-.77-4.21.49-1.73,1.51-2.94,2.42-2.94m0-1.5c-1.66,0-3.17,1.59-3.86,4-.79,2.82-.09,5.35,1.68,6a2.37,2.37,0,0,0,.88.16c1.65,0,3.16-1.58,3.85-4,.8-2.81.09-5.35-1.68-6a2.58,2.58,0,0,0-.87-.16Z"/><path class="cls-14" d="M135.25,15.44a1.47,1.47,0,0,1-.54-.1,2,2,0,0,1-1-2.47,1.87,1.87,0,0,1,1.72-1.46,1.62,1.62,0,0,1,.54.1A2,2,0,0,1,137,14a1.84,1.84,0,0,1-1.72,1.46Z"/><path class="cls-13" d="M135.39,12.16a.86.86,0,0,1,.27.05,1.28,1.28,0,0,1,.59,1.57,1.14,1.14,0,0,1-1,.91.65.65,0,0,1-.27,0,1.28,1.28,0,0,1-.59-1.56,1.14,1.14,0,0,1,1-.92m0-1.5a2.61,2.61,0,0,0-2.44,2,2.77,2.77,0,0,0,1.5,3.38,2.45,2.45,0,0,0,.8.14,2.59,2.59,0,0,0,2.44-2,2.76,2.76,0,0,0-1.49-3.38,2.24,2.24,0,0,0-.81-.15Z"/><path class="cls-15" d="M59.62,87.71a4.28,4.28,0,0,1-4.07-5.58L67.41,45.07a4.24,4.24,0,0,1,4.07-3h72a4.28,4.28,0,0,1,4.07,5.58L135.69,84.73a4.27,4.27,0,0,1-4.08,3Z"/><path class="cls-9" d="M143.47,42.85a3.53,3.53,0,0,1,3.36,4.6L135,84.51A3.52,3.52,0,0,1,131.61,87h-72a3.53,3.53,0,0,1-3.36-4.61l11.86-37a3.53,3.53,0,0,1,3.36-2.45h72m0-1.5h-72a5,5,0,0,0-4.79,3.49L54.83,81.9a5,5,0,0,0,4.79,6.56h72A5,5,0,0,0,136.4,85l11.86-37a5,5,0,0,0-4.79-6.56Z"/><path class="cls-16" d="M95.37,76.37c-13.48,0-25.85-1.92-35.55-5.12l-3.56,11.1A3.53,3.53,0,0,0,59.62,87h72A3.52,3.52,0,0,0,135,84.51l5.54-17.29C130.2,72.78,113.82,76.37,95.37,76.37Z"/><path class="cls-9" d="M57.14,80.56H68a.75.75,0,0,0,0-1.5H57.14a.75.75,0,0,0,0,1.5Z"/><path class="cls-9" d="M58.17,76.13H63.7a.75.75,0,0,0,0-1.5H58.17a.75.75,0,0,0,0,1.5Z"/><path class="cls-9" d="M127.74,82.67h8.56a.75.75,0,0,0,0-1.5h-8.56a.75.75,0,0,0,0,1.5Z"/><path class="cls-9" d="M131.85,78.22h5.52a.75.75,0,0,0,0-1.5h-5.52a.75.75,0,0,0,0,1.5Z"/><path class="cls-17" d="M75.93,50.35h31.24a.75.75,0,0,0,0-1.5H75.93a.75.75,0,0,0,0,1.5Z"/><path class="cls-17" d="M74,54.61H93.35a.75.75,0,0,0,0-1.5H74a.75.75,0,0,0,0,1.5Z"/></svg>